<?xml version="1.0" encoding="utf-8"?>
<svg version="1.1" xmlns:xlink="http://www.w3.org/1999/xlink" width="417px" height="56px" viewBox="784 405  417 56" xmlns="http://www.w3.org/2000/svg">
  <path d="M 785 413  A 7 7 0 0 1 792 406 L 1193 406  A 7 7 0 0 1 1200 413 L 1200 453  A 7 7 0 0 1 1193 460 L 792 460  A 7 7 0 0 1 785 453 L 785 413  Z " fill-rule="nonzero" fill="#f0f0f0" stroke="none" />
  <path d="M 784.5 413  A 7.5 7.5 0 0 1 792 405.5 L 1193 405.5  A 7.5 7.5 0 0 1 1200.5 413 L 1200.5 453  A 7.5 7.5 0 0 1 1193 460.5 L 792 460.5  A 7.5 7.5 0 0 1 784.5 453 L 784.5 413  Z " stroke-width="1" stroke="#797979" fill="none" stroke-opacity="0.6980392156862745" />
</svg>