<?xml version="1.0" encoding="utf-8"?>
<svg version="1.1" xmlns:xlink="http://www.w3.org/1999/xlink" width="110px" height="36px" xmlns="http://www.w3.org/2000/svg">
  <g transform="matrix(1 0 0 1 -1215 -46 )">
    <path d="M 1216 61  A 14 14 0 0 1 1230 47 L 1310 47  A 14 14 0 0 1 1324 61 L 1324 67  A 14 14 0 0 1 1310 81 L 1230 81  A 14 14 0 0 1 1216 67 L 1216 61  Z " fill-rule="nonzero" fill="#ffffff" stroke="none" />
    <path d="M 1215.5 61  A 14.5 14.5 0 0 1 1230 46.5 L 1310 46.5  A 14.5 14.5 0 0 1 1324.5 61 L 1324.5 67  A 14.5 14.5 0 0 1 1310 81.5 L 1230 81.5  A 14.5 14.5 0 0 1 1215.5 67 L 1215.5 61  Z " stroke-width="1" stroke="#aaaaaa" fill="none" stroke-opacity="0.9921568627450981" />
  </g>
</svg>