<?xml version="1.0" encoding="utf-8"?>
<svg version="1.1" xmlns:xlink="http://www.w3.org/1999/xlink" width="417px" height="50px" viewBox="778 425  417 50" xmlns="http://www.w3.org/2000/svg">
  <path d="M 779 435  A 9 9 0 0 1 788 426 L 1185 426  A 9 9 0 0 1 1194 435 L 1194 465  A 9 9 0 0 1 1185 474 L 788 474  A 9 9 0 0 1 779 465 L 779 435  Z " fill-rule="nonzero" fill="#f0f0f0" stroke="none" />
  <path d="M 778.5 435  A 9.5 9.5 0 0 1 788 425.5 L 1185 425.5  A 9.5 9.5 0 0 1 1194.5 435 L 1194.5 465  A 9.5 9.5 0 0 1 1185 474.5 L 788 474.5  A 9.5 9.5 0 0 1 778.5 465 L 778.5 435  Z " stroke-width="1" stroke="#797979" fill="none" stroke-opacity="0.6980392156862745" />
</svg>