<?xml version="1.0" encoding="utf-8"?>
<svg version="1.1" xmlns:xlink="http://www.w3.org/1999/xlink" width="319px" height="50px" viewBox="778 300  319 50" xmlns="http://www.w3.org/2000/svg">
  <path d="M 779 310  A 9 9 0 0 1 788 301 L 1087 301  A 9 9 0 0 1 1096 310 L 1096 340  A 9 9 0 0 1 1087 349 L 788 349  A 9 9 0 0 1 779 340 L 779 310  Z " fill-rule="nonzero" fill="#ffffff" stroke="none" />
  <path d="M 778.5 310  A 9.5 9.5 0 0 1 788 300.5 L 1087 300.5  A 9.5 9.5 0 0 1 1096.5 310 L 1096.5 340  A 9.5 9.5 0 0 1 1087 349.5 L 788 349.5  A 9.5 9.5 0 0 1 778.5 340 L 778.5 310  Z " stroke-width="1" stroke="#797979" fill="none" stroke-opacity="0.6980392156862745" />
</svg>