<?xml version="1.0" encoding="utf-8"?>
<svg version="1.1" xmlns:xlink="http://www.w3.org/1999/xlink" width="195px" height="50px" viewBox="778 519  195 50" xmlns="http://www.w3.org/2000/svg">
  <path d="M 779 529  A 9 9 0 0 1 788 520 L 963 520  A 9 9 0 0 1 972 529 L 972 559  A 9 9 0 0 1 963 568 L 788 568  A 9 9 0 0 1 779 559 L 779 529  Z " fill-rule="nonzero" fill="#f0f0f0" stroke="none" />
  <path d="M 778.5 529  A 9.5 9.5 0 0 1 788 519.5 L 963 519.5  A 9.5 9.5 0 0 1 972.5 529 L 972.5 559  A 9.5 9.5 0 0 1 963 568.5 L 788 568.5  A 9.5 9.5 0 0 1 778.5 559 L 778.5 529  Z " stroke-width="1" stroke="#797979" fill="none" stroke-opacity="0.6980392156862745" />
</svg>